=============================
 Run: Sat May 30 06:23:14 UTC 2026
=============================
Generating Sinhala audio via Azure TTS...
  % Total    % Received % Xferd  Average Speed   Time    Time     Time  Current
                                 Dload  Upload   Total   Spent    Left  Speed
  0     0    0     0    0     0      0      0 --:--:-- --:--:-- --:--:--     0100  2004    0     0  100  2004      0   3294 --:--:-- --:--:-- --:--:--  3290100 57928    0 55924  100  2004  36178   1296  0:00:01  0:00:01 --:--:-- 37469100  778k    0  776k  100  2004   312k    807  0:00:02  0:00:02 --:--:--  313k100 1456k    0 1454k  100  2004   418k    576  0:00:03  0:00:03 --:--:--  419k100 1661k    0 1659k  100  2004   432k    521  0:00:03  0:00:03 --:--:--  432k
Sinhala audio OK (HTTP 200)
Generating English audio via Azure TTS...
  % Total    % Received % Xferd  Average Speed   Time    Time     Time  Current
                                 Dload  Upload   Total   Spent    Left  Speed
  0     0    0     0    0     0      0      0 --:--:-- --:--:-- --:--:--     0100  1074    0     0  100  1074      0   1564 --:--:-- --:--:-- --:--:--  1563100  127k    0  126k  100  1074  78763    652  0:00:01  0:00:01 --:--:-- 79388100 1707k    0 1706k  100  1074   666k    419  0:00:02  0:00:02 --:--:--  666k
English audio OK (HTTP 200)
Creating Sinhala video...
ffmpeg version 8.1.1 Copyright (c) 2000-2026 the FFmpeg developers
  built with Apple clang version 17.0.0 (clang-1700.6.4.2)
  configuration: --prefix=/opt/homebrew/Cellar/ffmpeg/8.1.1 --enable-shared --enable-pthreads --enable-version3 --cc=clang --host-cflags= --host-ldflags= --enable-ffplay --enable-gpl --enable-libsvtav1 --enable-libopus --enable-libx264 --enable-libmp3lame --enable-libdav1d --enable-libvmaf --enable-libvpx --enable-libx265 --enable-openssl --enable-videotoolbox --enable-audiotoolbox --enable-neon
  libavutil      60. 26.101 / 60. 26.101
  libavcodec     62. 28.101 / 62. 28.101
  libavformat    62. 12.101 / 62. 12.101
  libavdevice    62.  3.101 / 62.  3.101
  libavfilter    11. 14.101 / 11. 14.101
  libswscale      9.  5.101 /  9.  5.101
  libswresample   6.  3.101 /  6.  3.101
Input #0, image2, from 'poster.jpg':
  Duration: 00:00:00.04, start: 0.000000, bitrate: 43548 kb/s
  Stream #0:0: Video: mjpeg (Progressive), yuvj420p(pc, bt470bg/unknown/unknown), 842x1191 [SAR 1:1 DAR 842:1191], 25 fps, 25 tbr, 25 tbn
[in#1/mp3 @ 0x159706ca0] Estimating duration from bitrate, this may be inaccurate
Input #1, mp3, from 'sinhala.mp3':
  Duration: 00:01:10.82, start: 0.000000, bitrate: 192 kb/s
  Stream #1:0: Audio: mp3 (mp3float), 48000 Hz, mono, fltp, 192 kb/s
Stream mapping:
  Stream #0:0 -> #0:0 (mjpeg (native) -> h264 (libx264))
  Stream #1:0 -> #0:1 (mp3 (mp3float) -> aac (native))
Press [q] to stop, [?] for help
[swscaler @ 0x1501b0000] deprecated pixel format used, make sure you did set range correctly
[libx264 @ 0x159710360] using SAR=1190/1191
[libx264 @ 0x159710360] using cpu capabilities: ARMv8 NEON DotProd
[libx264 @ 0x159710360] profile High, level 3.2, 4:2:0, 8-bit
[libx264 @ 0x159710360] 264 - core 165 r3222 b35605a - H.264/MPEG-4 AVC codec - Copyleft 2003-2025 - http://www.videolan.org/x264.html - options: cabac=1 ref=3 deblock=1:-3:-3 analyse=0x3:0x113 me=hex subme=7 psy=1 psy_rd=2.00:0.70 mixed_ref=1 me_range=16 chroma_me=1 trellis=1 8x8dct=1 cqm=0 deadzone=21,11 fast_pskip=1 chroma_qp_offset=-4 threads=4 lookahead_threads=1 sliced_threads=0 nr=0 decimate=1 interlaced=0 bluray_compat=0 constrained_intra=0 bframes=3 b_pyramid=2 b_adapt=1 b_bias=0 direct=1 weightb=1 open_gop=0 weightp=2 keyint=250 keyint_min=25 scenecut=40 intra_refresh=0 rc_lookahead=40 rc=crf mbtree=1 crf=23.0 qcomp=0.60 qpmin=0 qpmax=69 qpstep=4 ip_ratio=1.40 aq=1:1.20
Output #0, mp4, to 'vesak_sinhala.mp4':
  Metadata:
    encoder         : Lavf62.12.101
  Stream #0:0: Video: h264 (avc1 / 0x31637661), yuv420p(pc, bt470bg/unknown/unknown, progressive), 842x1190 [SAR 1190:1191 DAR 842:1191], q=2-31, 25 fps, 12800 tbn
    Metadata:
      encoder         : Lavc62.28.101 libx264
    Side data:
      CPB properties: bitrate max/min/avg: 0/0/0 buffer size: 0 vbv_delay: N/A
  Stream #0:1: Audio: aac (LC) (mp4a / 0x6134706D), 48000 Hz, mono, fltp, 192 kb/s
    Metadata:
      encoder         : Lavc62.28.101 aac
frame=   37 fps=0.0 q=28.0 size=     256KiB time=00:00:01.40 bitrate=1498.2kbits/s speed=2.75x elapsed=0:00:00.50    frame=  118 fps=114 q=28.0 size=     256KiB time=00:00:04.64 bitrate= 452.1kbits/s speed=4.49x elapsed=0:00:01.03    frame=  187 fps=122 q=28.0 size=     256KiB time=00:00:07.44 bitrate= 281.9kbits/s speed=4.84x elapsed=0:00:01.53    frame=  273 fps=129 q=28.0 size=     512KiB time=00:00:10.88 bitrate= 385.5kbits/s speed=5.15x elapsed=0:00:02.11    frame=  289 fps=108 q=28.0 size=     768KiB time=00:00:11.48 bitrate= 548.1kbits/s speed=4.27x elapsed=0:00:02.68    frame=  289 fps= 89 q=28.0 size=     768KiB time=00:00:11.48 bitrate= 548.1kbits/s speed=3.55x elapsed=0:00:03.23    frame=  319 fps= 85 q=28.0 size=     768KiB time=00:00:12.68 bitrate= 496.2kbits/s speed=3.38x elapsed=0:00:03.75    frame=  393 fps= 92 q=28.0 size=     768KiB time=00:00:15.64 bitrate= 402.3kbits/s speed=3.67x elapsed=0:00:04.25    frame=  473 fps= 99 q=28.0 size=     768KiB time=00:00:18.84 bitrate= 334.0kbits/s speed=3.94x elapsed=0:00:04.78    frame=  548 fps=103 q=28.0 size=    1280KiB time=00:00:21.84 bitrate= 480.1kbits/s speed=4.11x elapsed=0:00:05.31    frame=  639 fps=109 q=28.0 size=    1280KiB time=00:00:25.48 bitrate= 411.5kbits/s speed=4.34x elapsed=0:00:05.86    frame=  729 fps=113 q=28.0 size=    1280KiB time=00:00:29.08 bitrate= 360.6kbits/s speed=4.51x elapsed=0:00:06.44    frame=  803 fps=116 q=28.0 size=    1536KiB time=00:00:32.04 bitrate= 392.7kbits/s speed=4.61x elapsed=0:00:06.94    frame=  883 fps=118 q=28.0 size=    1792KiB time=00:00:35.24 bitrate= 416.6kbits/s speed=4.73x elapsed=0:00:07.45    frame=  971 fps=121 q=28.0 size=    1792KiB time=00:00:38.76 bitrate= 378.8kbits/s speed=4.84x elapsed=0:00:08.01    frame= 1055 fps=123 q=28.0 size=    2048KiB time=00:00:42.12 bitrate= 398.3kbits/s speed=4.93x elapsed=0:00:08.54    frame= 1133 fps=125 q=28.0 size=    2304KiB time=00:00:45.24 bitrate= 417.2kbits/s speed=4.99x elapsed=0:00:09.06    frame= 1211 fps=126 q=28.0 size=    2304KiB time=00:00:48.36 bitrate= 390.3kbits/s speed=5.05x elapsed=0:00:09.58    frame= 1289 fps=128 q=28.0 size=    2560KiB time=00:00:51.48 bitrate= 407.4kbits/s speed= 5.1x elapsed=0:00:10.09    frame= 1377 fps=129 q=28.0 size=    2816KiB time=00:00:55.00 bitrate= 419.4kbits/s speed=5.16x elapsed=0:00:10.65    frame= 1463 fps=131 q=28.0 size=    2816KiB time=00:00:58.44 bitrate= 394.7kbits/s speed=5.23x elapsed=0:00:11.17    frame= 1541 fps=132 q=28.0 size=    3072KiB time=00:01:01.56 bitrate= 408.8kbits/s speed=5.26x elapsed=0:00:11.70    frame= 1611 fps=132 q=28.0 size=    3072KiB time=00:01:04.36 bitrate= 391.0kbits/s speed=5.26x elapsed=0:00:12.23    frame= 1683 fps=132 q=28.0 size=    3328KiB time=00:01:07.24 bitrate= 405.5kbits/s speed=5.28x elapsed=0:00:12.73    frame= 1741 fps=131 q=28.0 size=    3328KiB time=00:01:09.56 bitrate= 391.9kbits/s speed=5.24x elapsed=0:00:13.26    [out#0/mp4 @ 0x600001e38300] video:2334KiB audio:1363KiB subtitle:0KiB other streams:0KiB global headers:0KiB muxing overhead: 1.480286%
frame= 1817 fps=132 q=-1.0 Lsize=    3752KiB time=00:01:10.82 bitrate= 433.9kbits/s speed=5.16x elapsed=0:00:13.72    
[libx264 @ 0x159710360] frame I:8     Avg QP:17.66  size:278149
[libx264 @ 0x159710360] frame P:458   Avg QP:17.36  size:   173
[libx264 @ 0x159710360] frame B:1351  Avg QP:32.32  size:    63
[libx264 @ 0x159710360] consecutive B-frames:  0.8%  0.1%  0.0% 99.1%
[libx264 @ 0x159710360] mb I  I16..4: 22.4% 27.3% 50.3%
[libx264 @ 0x159710360] mb P  I16..4:  0.0%  0.0%  0.0%  P16..4:  0.5%  0.0%  0.0%  0.0%  0.0%    skip:99.4%
[libx264 @ 0x159710360] mb B  I16..4:  0.0%  0.0%  0.0%  B16..8:  0.6%  0.0%  0.0%  direct: 0.0%  skip:99.4%  L0:40.3% L1:59.7% BI: 0.0%
[libx264 @ 0x159710360] 8x8 transform intra:27.2% inter:81.9%
[libx264 @ 0x159710360] coded y,uvDC,uvAC intra: 67.0% 82.3% 77.7% inter: 0.1% 0.0% 0.0%
[libx264 @ 0x159710360] i16 v,h,dc,p: 61% 34%  3%  3%
[libx264 @ 0x159710360] i8 v,h,dc,ddl,ddr,vr,hd,vl,hu: 17% 27% 23%  4%  5%  4%  7%  4% 11%
[libx264 @ 0x159710360] i4 v,h,dc,ddl,ddr,vr,hd,vl,hu: 20% 27% 15%  5%  7%  6%  7%  5%  8%
[libx264 @ 0x159710360] i8c dc,h,v,p: 35% 37% 19%  9%
[libx264 @ 0x159710360] Weighted P-Frames: Y:0.0% UV:0.0%
[libx264 @ 0x159710360] ref P L0: 92.4%  1.3%  5.4%  1.0%
[libx264 @ 0x159710360] ref B L0: 58.3% 41.5%  0.3%
[libx264 @ 0x159710360] ref B L1: 93.2%  6.8%
[libx264 @ 0x159710360] kb/s:262.99
[aac @ 0x1597125b0] Qavg: 57918.766
Creating English video...
ffmpeg version 8.1.1 Copyright (c) 2000-2026 the FFmpeg developers
  built with Apple clang version 17.0.0 (clang-1700.6.4.2)
  configuration: --prefix=/opt/homebrew/Cellar/ffmpeg/8.1.1 --enable-shared --enable-pthreads --enable-version3 --cc=clang --host-cflags= --host-ldflags= --enable-ffplay --enable-gpl --enable-libsvtav1 --enable-libopus --enable-libx264 --enable-libmp3lame --enable-libdav1d --enable-libvmaf --enable-libvpx --enable-libx265 --enable-openssl --enable-videotoolbox --enable-audiotoolbox --enable-neon
  libavutil      60. 26.101 / 60. 26.101
  libavcodec     62. 28.101 / 62. 28.101
  libavformat    62. 12.101 / 62. 12.101
  libavdevice    62.  3.101 / 62.  3.101
  libavfilter    11. 14.101 / 11. 14.101
  libswscale      9.  5.101 /  9.  5.101
  libswresample   6.  3.101 /  6.  3.101
Input #0, image2, from 'poster.jpg':
  Duration: 00:00:00.04, start: 0.000000, bitrate: 43548 kb/s
  Stream #0:0: Video: mjpeg (Progressive), yuvj420p(pc, bt470bg/unknown/unknown), 842x1191 [SAR 1:1 DAR 842:1191], 25 fps, 25 tbr, 25 tbn
[in#1/mp3 @ 0x140704c40] Estimating duration from bitrate, this may be inaccurate
Input #1, mp3, from 'english.mp3':
  Duration: 00:01:12.82, start: 0.000000, bitrate: 192 kb/s
  Stream #1:0: Audio: mp3 (mp3float), 48000 Hz, mono, fltp, 192 kb/s
Stream mapping:
  Stream #0:0 -> #0:0 (mjpeg (native) -> h264 (libx264))
  Stream #1:0 -> #0:1 (mp3 (mp3float) -> aac (native))
Press [q] to stop, [?] for help
[swscaler @ 0x1487a8000] deprecated pixel format used, make sure you did set range correctly
[libx264 @ 0x14180da00] using SAR=1190/1191
[libx264 @ 0x14180da00] using cpu capabilities: ARMv8 NEON DotProd
[libx264 @ 0x14180da00] profile High, level 3.2, 4:2:0, 8-bit
[libx264 @ 0x14180da00] 264 - core 165 r3222 b35605a - H.264/MPEG-4 AVC codec - Copyleft 2003-2025 - http://www.videolan.org/x264.html - options: cabac=1 ref=3 deblock=1:-3:-3 analyse=0x3:0x113 me=hex subme=7 psy=1 psy_rd=2.00:0.70 mixed_ref=1 me_range=16 chroma_me=1 trellis=1 8x8dct=1 cqm=0 deadzone=21,11 fast_pskip=1 chroma_qp_offset=-4 threads=4 lookahead_threads=1 sliced_threads=0 nr=0 decimate=1 interlaced=0 bluray_compat=0 constrained_intra=0 bframes=3 b_pyramid=2 b_adapt=1 b_bias=0 direct=1 weightb=1 open_gop=0 weightp=2 keyint=250 keyint_min=25 scenecut=40 intra_refresh=0 rc_lookahead=40 rc=crf mbtree=1 crf=23.0 qcomp=0.60 qpmin=0 qpmax=69 qpstep=4 ip_ratio=1.40 aq=1:1.20
Output #0, mp4, to 'vesak_english.mp4':
  Metadata:
    encoder         : Lavf62.12.101
  Stream #0:0: Video: h264 (avc1 / 0x31637661), yuv420p(pc, bt470bg/unknown/unknown, progressive), 842x1190 [SAR 1190:1191 DAR 842:1191], q=2-31, 25 fps, 12800 tbn
    Metadata:
      encoder         : Lavc62.28.101 libx264
    Side data:
      CPB properties: bitrate max/min/avg: 0/0/0 buffer size: 0 vbv_delay: N/A
  Stream #0:1: Audio: aac (LC) (mp4a / 0x6134706D), 48000 Hz, mono, fltp, 192 kb/s
    Metadata:
      encoder         : Lavc62.28.101 aac
frame=   37 fps=0.0 q=28.0 size=     256KiB time=00:00:01.40 bitrate=1498.2kbits/s speed=2.67x elapsed=0:00:00.52    frame=  122 fps=111 q=28.0 size=     256KiB time=00:00:04.80 bitrate= 437.0kbits/s speed=4.38x elapsed=0:00:01.09    frame=  213 fps=131 q=28.0 size=     256KiB time=00:00:08.44 bitrate= 248.5kbits/s speed=5.17x elapsed=0:00:01.63    frame=  291 fps=135 q=28.0 size=     768KiB time=00:00:11.56 bitrate= 544.3kbits/s speed=5.38x elapsed=0:00:02.14    frame=  294 fps=110 q=28.0 size=     768KiB time=00:00:11.68 bitrate= 538.7kbits/s speed=4.38x elapsed=0:00:02.66    frame=  294 fps= 91 q=28.0 size=     768KiB time=00:00:11.68 bitrate= 538.7kbits/s speed=3.63x elapsed=0:00:03.21    frame=  356 fps= 94 q=28.0 size=     768KiB time=00:00:14.16 bitrate= 444.3kbits/s speed=3.76x elapsed=0:00:03.76    frame=  440 fps=103 q=28.0 size=     768KiB time=00:00:17.52 bitrate= 359.1kbits/s speed=4.08x elapsed=0:00:04.28    frame=  532 fps=109 q=28.0 size=    1280KiB time=00:00:21.20 bitrate= 494.6kbits/s speed=4.36x elapsed=0:00:04.86    frame=  614 fps=113 q=28.0 size=    1280KiB time=00:00:24.48 bitrate= 428.4kbits/s speed=4.52x elapsed=0:00:05.42    frame=  694 fps=117 q=28.0 size=    1280KiB time=00:00:27.68 bitrate= 378.8kbits/s speed=4.67x elapsed=0:00:05.92    frame=  772 fps=120 q=28.0 size=    1792KiB time=00:00:30.80 bitrate= 476.6kbits/s speed=4.78x elapsed=0:00:06.44    frame=  859 fps=123 q=28.0 size=    1792KiB time=00:00:34.28 bitrate= 428.3kbits/s speed= 4.9x elapsed=0:00:06.99    frame=  936 fps=124 q=28.0 size=    1792KiB time=00:00:37.36 bitrate= 392.9kbits/s speed=4.95x elapsed=0:00:07.54    frame= 1015 fps=126 q=28.0 size=    2304KiB time=00:00:40.52 bitrate= 465.8kbits/s speed=5.03x elapsed=0:00:08.06    frame= 1102 fps=128 q=28.0 size=    2304KiB time=00:00:44.00 bitrate= 429.0kbits/s speed= 5.1x elapsed=0:00:08.62    frame= 1182 fps=129 q=28.0 size=    2304KiB time=00:00:47.20 bitrate= 399.9kbits/s speed=5.14x elapsed=0:00:09.19    frame= 1276 fps=131 q=28.0 size=    2816KiB time=00:00:50.96 bitrate= 452.7kbits/s speed=5.22x elapsed=0:00:09.76    frame= 1350 fps=131 q=28.0 size=    2816KiB time=00:00:53.92 bitrate= 427.8kbits/s speed=5.25x elapsed=0:00:10.27    frame= 1436 fps=133 q=28.0 size=    2816KiB time=00:00:57.36 bitrate= 402.2kbits/s speed=5.31x elapsed=0:00:10.80    frame= 1524 fps=134 q=28.0 size=    3328KiB time=00:01:00.88 bitrate= 447.8kbits/s speed=5.35x elapsed=0:00:11.38    frame= 1614 fps=135 q=28.0 size=    3328KiB time=00:01:04.48 bitrate= 422.8kbits/s speed= 5.4x elapsed=0:00:11.94    frame= 1698 fps=136 q=28.0 size=    3328KiB time=00:01:07.84 bitrate= 401.9kbits/s speed=5.43x elapsed=0:00:12.50    frame= 1757 fps=135 q=28.0 size=    3840KiB time=00:01:10.20 bitrate= 448.1kbits/s speed=5.39x elapsed=0:00:13.01    [out#0/mp4 @ 0x600003fac0c0] video:2337KiB audio:1600KiB subtitle:0KiB other streams:0KiB global headers:0KiB muxing overhead: 1.426899%
frame= 1864 fps=138 q=-1.0 Lsize=    3993KiB time=00:01:12.81 bitrate= 449.2kbits/s speed=5.38x elapsed=0:00:13.53    
[libx264 @ 0x14180da00] frame I:8     Avg QP:17.66  size:278149
[libx264 @ 0x14180da00] frame P:470   Avg QP:17.39  size:   170
[libx264 @ 0x14180da00] frame B:1386  Avg QP:32.37  size:    63
[libx264 @ 0x14180da00] consecutive B-frames:  0.9%  0.0%  0.0% 99.1%
[libx264 @ 0x14180da00] mb I  I16..4: 22.4% 27.3% 50.3%
[libx264 @ 0x14180da00] mb P  I16..4:  0.0%  0.0%  0.0%  P16..4:  0.5%  0.0%  0.0%  0.0%  0.0%    skip:99.4%
[libx264 @ 0x14180da00] mb B  I16..4:  0.0%  0.0%  0.0%  B16..8:  0.6%  0.0%  0.0%  direct: 0.0%  skip:99.4%  L0:40.3% L1:59.7% BI: 0.0%
[libx264 @ 0x14180da00] 8x8 transform intra:27.2% inter:82.1%
[libx264 @ 0x14180da00] coded y,uvDC,uvAC intra: 67.0% 82.3% 77.7% inter: 0.1% 0.0% 0.0%
[libx264 @ 0x14180da00] i16 v,h,dc,p: 61% 34%  3%  3%
[libx264 @ 0x14180da00] i8 v,h,dc,ddl,ddr,vr,hd,vl,hu: 17% 27% 23%  4%  5%  4%  7%  4% 11%
[libx264 @ 0x14180da00] i4 v,h,dc,ddl,ddr,vr,hd,vl,hu: 20% 27% 15%  5%  7%  6%  7%  5%  8%
[libx264 @ 0x14180da00] i8c dc,h,v,p: 35% 37% 19%  9%
[libx264 @ 0x14180da00] Weighted P-Frames: Y:0.0% UV:0.0%
[libx264 @ 0x14180da00] ref P L0: 92.4%  1.2%  5.4%  1.0%
[libx264 @ 0x14180da00] ref B L0: 58.6% 41.1%  0.3%
[libx264 @ 0x14180da00] ref B L1: 93.4%  6.6%
[libx264 @ 0x14180da00] kb/s:256.70
[aac @ 0x14180fc50] Qavg: 53292.941

Done!
  vesak_sinhala.mp4
  vesak_english.mp4
